<?xml version="1.0" encoding="utf-8"?>
<!-- Generator: Adobe Illustrator 24.0.1, SVG Export Plug-In . SVG Version: 6.00 Build 0)  -->
<svg version="1.1" id="Calque_1" xmlns="http://www.w3.org/2000/svg" xmlns:xlink="http://www.w3.org/1999/xlink" x="0px" y="0px"
	 viewBox="0 0 14.5 12" style="enable-background:new 0 0 14.5 12;" xml:space="preserve">
<style type="text/css">
	.st0{fill-rule:evenodd;clip-rule:evenodd;}
</style>
<path class="st0" d="M12.9,2.6c0,0.4-0.2,0.7-0.5,0.7h-10C2.1,3.3,1.9,3,1.9,2.6s0.2-0.7,0.5-0.7h10C12.7,1.9,12.9,2.2,12.9,2.6z"/>
<path class="st0" d="M12.9,5.8c0,0.4-0.2,0.7-0.5,0.7h-10c-0.3,0-0.5-0.3-0.5-0.7s0.2-0.7,0.5-0.7h10C12.7,5.2,12.9,5.5,12.9,5.8z"
	/>
<path class="st0" d="M12.9,9c0,0.4-0.2,0.7-0.5,0.7h-10C2.1,9.7,1.9,9.4,1.9,9s0.2-0.7,0.5-0.7h10C12.7,8.3,12.9,8.6,12.9,9z"/>
</svg>
